<!DOCTYPE svg PUBLIC "-//W3C//DTD SVG 20010904//EN" "http://www.w3.org/TR/2001/REC-SVG-20010904/DTD/svg10.dtd"[]><svg version="1.0" xmlns="http://www.w3.org/2000/svg" width="112" height="112" viewBox="0 0 300.000000 300.000000" preserveAspectRatio="xMidYMid meet"><metadata>Created by potrace 1.10, written by Peter Selinger 2001-2011</metadata><g transform="translate(0.000000,300.000000) scale(0.100000,-0.100000)" fill="#000000" stroke="none"><path d="M1430 2734 c0 -5 30 -9 68 -9 289 0 551 -100 791 -300 160 -133 269 -289 354 -506 73 -185 96 -461 53 -659 -24 -114 -40 -167 -62 -217 -26 -59 -44 -114 -34 -108 28 17 97 196 126 326 23 104 23 345 1 462 -48 243 -168 468 -337 637 -186 185 -401 301 -660 355 -89 19 -300 32 -300 19z" /><path d="M1190 2695 c-98 -27 -173 -55 -166 -63 3 -2 29 5 58 16 52 21 179 57 228 65 22 4 21 4 -5 5 -16 0 -68 -10 -115 -23z" /><path d="M1305 2660 c-155 -33 -321 -111 -460 -215 -33 -25 -71 -51 -85 -57 -35 -16 -158 -152 -214 -236 -58 -87 -106 -215 -111 -296 -3 -34 -9 -110 -14 -171 -14 -156 -13 -307 4 -400 9 -50 11 -82 4 -85 -13 -9 -29 -68 -29 -109 0 -22 17 -66 46 -120 123 -228 295 -401 509 -510 176 -90 318 -130 495 -138 218 -10 392 26 585 121 176 87 325 220 446 398 81 118 155 294 173 408 9 59 -10 42 -23 -20 -16 -78 -19 -87 -45 -144 -14 -31 -26 -58 -26 -61 0 -9 -70 -122 -89 -144 -12 -13 -21 -27 -21 -31 0 -8 -11 -21 -103 -124 -149 -168 -340 -281 -578 -343 -92 -23 -123 -27 -264 -27 -136 0 -174 3 -249 23 -108 28 -228 77 -291 120 -25 17 -50 31 -55 31 -4 0 -10 4 -12 8 -1 5 -31 27 -65 51 -35 23 -63 46 -63 51 0 16 11 12 54 -20 165 -122 269 -177 384 -205 29 -8 60 -19 69 -27 12 -10 66 -14 205 -16 104 -1 187 1 185 5 -3 5 7 9 21 10 81 6 302 100 401 170 107 77 310 291 357 378 6 11 27 50 48 88 20 37 35 67 32 67 -4 0 3 17 14 37 11 21 20 48 20 61 0 33 32 146 45 154 6 5 5 8 -4 8 -10 0 -11 3 -2 14 9 11 9 15 -1 18 -10 4 -10 8 -2 19 6 8 10 32 8 54 -1 22 -3 81 -4 130 -4 124 -48 301 -105 415 -46 94 -131 233 -146 238 -5 2 -7 8 -3 13 3 5 -1 9 -9 9 -8 0 -17 9 -20 20 -3 11 -12 20 -21 20 -9 0 -16 6 -16 13 0 7 -9 19 -19 27 -11 7 -18 17 -15 22 3 4 0 8 -7 8 -7 0 -10 3 -6 6 7 7 153 -136 150 -147 -2 -5 3 -9 10 -9 6 0 27 -24 45 -53 18 -29 38 -61 45 -72 6 -10 17 -25 24 -32 6 -7 15 -23 19 -36 3 -12 12 -29 19 -37 13 -14 40 -80 52 -125 3 -11 12 -35 20 -53 8 -18 12 -40 9 -48 -3 -8 -2 -14 2 -14 7 0 12 -29 15 -77 0 -7 4 -13 9 -13 5 0 4 -9 -2 -20 -7 -13 -7 -20 -1 -20 6 0 9 -15 8 -32 -1 -18 3 -33 8 -33 15 0 7 105 -15 205 -46 209 -149 397 -305 555 -222 227 -499 350 -810 360 -115 4 -156 1 -230 -15z m370 -54 c205 -34 401 -140 566 -305 153 -154 237 -293 297 -496 32 -106 56 -287 47 -351 -2 -22 -7 -64 -9 -95 -12 -137 -97 -350 -193 -481 -148 -203 -339 -350 -540 -417 -239 -79 -511 -74 -733 14 -70 27 -172 76 -180 86 -3 3 -19 14 -37 22 -17 9 -46 30 -65 47 -23 22 -39 29 -55 25 -43 -10 -227 197 -301 340 -14 28 -26 53 -27 57 0 3 -3 9 -7 13 -8 9 2 77 13 90 6 5 9 3 9 -6 0 -43 191 -381 206 -366 3 3 -13 29 -35 58 -86 113 -156 275 -172 398 -18 134 -20 178 -10 156 8 -16 10 -12 10 23 1 23 -3 42 -9 42 -12 0 -13 42 -1 56 5 5 11 47 15 93 5 76 4 82 -9 65 -14 -17 -15 -14 -9 36 12 124 62 259 145 397 157 259 475 468 764 502 77 9 257 7 320 -3z" /><path d="M1300 2545 c-133 -28 -263 -87 -385 -173 -82 -57 -188 -159 -180 -172 3 -5 0 -12 -6 -16 -8 -4 -9 -3 -5 4 4 7 5 12 2 12 -12 0 -77 -101 -70 -111 4 -8 3 -9 -4 -5 -6 3 -16 -3 -22 -15 -8 -15 -8 -19 -1 -15 7 5 9 1 5 -8 -3 -9 -10 -13 -15 -10 -5 3 -6 -3 -2 -12 4 -12 3 -15 -5 -10 -8 5 -10 1 -5 -10 4 -12 3 -15 -5 -10 -8 5 -10 1 -5 -10 4 -12 3 -15 -5 -10 -8 5 -10 1 -5 -10 4 -10 2 -15 -4 -11 -5 3 -9 -3 -9 -13 1 -11 -3 -19 -8 -19 -15 1 -25 -25 -20 -51 4 -17 3 -21 -4 -12 -10 15 -22 -21 -47 -138 -71 -338 30 -694 270 -948 159 -169 389 -277 643 -302 126 -13 231 -3 362 34 104 29 146 47 230 97 284 169 463 429 516 752 15 90 15 122 6 214 -14 137 -51 279 -101 386 -125 273 -373 488 -658 573 -75 22 -112 27 -243 30 -107 2 -175 -1 -220 -11z m486 -69 c38 -13 83 -31 99 -40 17 -9 36 -16 43 -16 6 0 12 -4 12 -8 0 -5 18 -17 40 -27 48 -22 61 -36 29 -32 -12 1 -33 12 -47 25 -14 12 -32 22 -41 22 -10 0 -21 4 -26 9 -13 12 -100 46 -157 62 -27 7 -48 17 -48 21 0 13 23 9 96 -16z m-46 -46 c141 -47 233 -102 370 -218 l35 -30 -23 -47 -23 -47 -58 4 c-55 3 -58 2 -49 -17 7 -17 17 -20 49 -17 44 5 45 3 24 -38 -9 -18 -24 -30 -35 -30 -22 0 -27 -15 -9 -26 14 -8 49 -90 49 -115 0 -56 -66 -139 -110 -139 -6 0 -10 58 -10 171 0 157 -1 170 -17 167 -16 -3 -18 -16 -18 -105 0 -92 -2 -100 -16 -87 -27 24 -29 15 -5 -21 19 -27 23 -45 20 -82 -3 -51 -9 -54 -52 -27 -62 41 -82 147 -40 214 12 19 23 49 23 65 1 17 18 66 38 111 20 44 39 96 43 115 5 31 2 29 -30 -26 -20 -33 -38 -72 -41 -86 -8 -37 -25 -39 -328 -39 -250 0 -262 1 -283 21 -20 19 -24 19 -50 6 -24 -12 -150 -57 -161 -57 -1 0 -3 14 -3 31 0 28 -3 31 -22 25 -13 -3 -33 -6 -45 -6 -14 0 -23 -6 -23 -15 0 -11 -11 -15 -37 -15 -21 0 -45 -5 -53 -10 -11 -7 -1 -10 34 -10 40 0 47 -3 42 -16 -3 -9 -6 -26 -6 -40 0 -16 -27 -53 -85 -116 -47 -51 -83 -98 -81 -105 3 -7 1 -13 -5 -13 -6 0 -7 -18 -3 -49 6 -43 4 -50 -17 -65 -13 -9 -27 -16 -31 -16 -5 0 -8 30 -8 66 0 41 -4 63 -10 59 -14 -9 -12 -97 3 -134 l13 -31 32 33 c22 23 32 43 32 65 0 22 5 32 15 32 12 0 15 -18 15 -105 l0 -105 -55 0 c-33 0 -55 -4 -55 -11 0 -7 15 -10 40 -7 22 2 40 1 40 -3 0 -11 -110 -18 -178 -12 -38 4 -63 2 -60 -3 8 -12 1937 -12 1961 0 14 7 17 3 17 -25 l0 -34 -987 0 c-786 0 -987 -3 -991 -13 -3 -10 191 -12 985 -10 l988 3 -3 -32 c-4 -33 -15 -42 -27 -23 -11 18 -1925 7 -1925 -12 0 -4 437 -8 970 -8 534 0 970 -3 970 -7 0 -5 -3 -17 -6 -28 -5 -20 -10 -21 -966 -24 -529 -1 -966 -5 -973 -7 -11 -4 -23 54 -40 196 -8 57 17 234 46 325 27 88 88 220 129 280 102 148 283 292 446 355 124 48 197 59 369 56 149 -3 167 -6 255 -36z m394 -156 c56 -53 55 -71 -1 -25 -21 17 -49 40 -63 51 -24 18 -24 19 -4 20 11 0 42 -21 68 -46z m110 -214 c26 -58 32 -79 24 -94 -7 -13 -6 -22 6 -34 13 -14 14 -13 10 5 -11 41 14 31 39 -15 31 -58 68 -168 97 -287 13 -49 29 -95 36 -101 11 -9 -21 -12 -128 -12 l-143 -1 5 67 c5 65 7 69 48 107 69 62 94 132 68 190 -13 29 -13 28 -8 -22 5 -63 -9 -104 -50 -138 -45 -38 -58 -33 -58 22 0 37 6 53 27 75 30 32 24 51 -8 22 l-21 -19 4 123 c3 111 1 122 -14 122 -16 0 -18 -12 -18 -120 l0 -120 -25 16 c-14 9 -25 14 -25 11 0 -4 11 -17 25 -31 21 -21 25 -35 25 -80 0 -48 -2 -54 -19 -49 -11 3 -30 16 -42 29 -21 22 -24 36 -24 109 -1 62 2 86 12 90 10 3 11 10 3 24 -15 29 -12 55 9 82 10 13 21 34 25 46 4 13 19 44 33 70 l27 46 13 -29 c7 -16 28 -63 47 -104z m-988 19 l33 -32 248 2 c136 1 258 5 271 8 25 6 30 -13 10 -40 -11 -14 -43 -16 -246 -18 -225 -2 -232 -3 -216 -21 16 -16 36 -18 234 -18 l217 0 -29 -57 c-36 -70 -32 -114 14 -185 25 -40 36 -49 69 -54 39 -7 39 -7 39 -53 0 -25 3 -56 6 -68 l6 -23 -151 0 c-130 0 -151 2 -151 15 0 9 12 26 26 39 l27 22 -38 95 c-20 52 -41 98 -47 104 -10 11 10 -47 40 -115 35 -79 36 -87 8 -94 -17 -4 -26 -14 -28 -33 -2 -14 -9 -28 -15 -31 -10 -3 -12 17 -9 82 3 68 1 86 -10 86 -10 0 -14 -14 -14 -50 0 -48 -1 -50 -21 -40 -27 15 -34 36 -21 63 6 12 16 40 23 62 6 22 18 53 26 68 8 16 12 31 9 34 -6 6 -48 -77 -76 -148 -28 -75 -27 -105 6 -113 15 -4 32 -2 40 5 12 9 14 6 14 -20 0 -30 -1 -31 -45 -31 l-45 0 -1 43 c-1 23 0 77 1 121 2 71 4 81 28 102 17 15 22 23 13 24 -8 0 -76 61 -151 136 l-137 136 -137 -136 c-76 -75 -141 -134 -145 -132 -7 5 -118 -21 -135 -31 -4 -3 -2 -9 5 -14 7 -4 10 -11 7 -14 -10 -11 -28 4 -28 23 0 26 145 166 164 159 14 -6 16 5 16 73 l0 80 28 0 c26 0 28 -2 24 -35 -3 -21 0 -35 7 -35 21 0 144 50 170 70 14 10 28 20 31 20 2 0 19 -14 36 -31z m1054 -16 c0 -6 6 -18 13 -25 14 -14 37 -53 37 -62 0 -3 -4 -6 -9 -6 -8 0 -81 122 -81 135 0 3 9 -3 20 -12 11 -10 20 -23 20 -30z m-988 -150 l108 -108 0 -145 0 -145 -218 0 c-119 0 -218 3 -219 8 -2 4 -3 69 -3 145 l0 137 106 108 c58 59 109 107 112 107 4 0 55 -48 114 -107z m1086 -35 c15 -42 8 -48 -12 -9 -18 34 -19 41 -8 41 4 0 13 -14 20 -32z m-1453 -150 c-1 -29 -3 -88 -4 -130 l-1 -78 -65 0 -64 0 4 118 5 117 47 12 c81 19 80 19 78 -39z m1095 -38 c16 -17 42 -33 59 -36 29 -6 31 -9 31 -54 0 -27 3 -55 6 -64 5 -14 -7 -16 -97 -16 l-104 0 0 80 c-1 49 3 80 10 80 5 0 21 9 35 20 14 11 27 20 28 20 2 0 17 -14 32 -30z m-68 -195 c251 0 454 -3 451 -7 -6 -11 -1003 -10 -1003 0 0 16 10 19 53 13 23 -3 247 -6 499 -6z m-614 -12 c-21 -2 -55 -2 -75 0 -21 2 -4 4 37 4 41 0 58 -2 38 -4z m1091 -255 c0 -7 -4 -21 -7 -30 -7 -17 -64 -18 -944 -20 -515 -2 -940 -6 -944 -10 -4 -5 -5 -10 -3 -13 3 -2 425 -5 937 -5 785 -1 932 -4 932 -15 0 -24 -78 -164 -133 -238 -129 -174 -337 -314 -555 -375 -159 -44 -388 -36 -557 20 -33 11 -66 23 -73 27 -11 6 -14 58 -13 272 l2 264 -41 0 -40 0 1 -240 c1 -162 4 -229 10 -205 5 19 8 113 7 208 0 95 2 175 5 178 3 3 11 3 17 -1 9 -6 11 -65 6 -228 -3 -121 -7 -222 -9 -224 -3 -2 -16 1 -31 6 l-26 11 -2 162 -2 163 -6 -153 -5 -154 -65 43 c-80 53 -164 139 -237 243 -55 78 -134 234 -147 288 l-6 28 957 3 c527 1 961 3 966 5 4 1 7 -4 6 -10z m-1372 -570 c-2 -24 -4 -7 -4 37 0 44 2 63 4 43 2 -21 2 -57 0 -80z" /><path d="M1479 2337 c-58 -38 -86 -126 -59 -178 14 -26 62 -49 102 -49 65 0 138 75 138 143 0 47 -68 107 -123 107 -13 0 -39 -10 -58 -23z m106 -1 c22 -10 41 -27 51 -50 15 -31 16 -39 3 -73 -29 -75 -116 -93 -173 -36 -19 19 -26 36 -26 65 0 51 14 76 53 93 41 18 50 18 92 1z" /><path d="M651 1868 c-40 -87 -82 -224 -75 -243 4 -8 16 -15 28 -15 24 0 56 -45 56 -79 0 -20 -5 -21 -80 -21 -57 0 -80 -4 -80 -12 0 -16 154 -9 168 7 6 6 7 35 5 65 -4 49 -9 58 -34 72 -30 18 -38 52 -19 86 5 9 21 53 36 97 15 44 28 81 30 83 1 2 10 -23 19 -55 10 -32 19 -53 22 -47 4 12 -35 124 -43 124 -3 0 -18 -28 -33 -62z" /><path d="M1172 1918 c-5 -7 -13 -23 -16 -35 -9 -28 24 -63 58 -63 49 0 75 60 40 94 -19 19 -68 21 -82 4z m42 -34 c21 -8 21 -43 0 -51 -20 -8 -49 21 -41 41 7 17 16 19 41 10z" /><path d="M1150 1698 l0 -73 65 -3 65 -3 0 76 0 75 -65 0 -65 0 0 -72z m100 -8 l0 -50 -45 0 -45 0 0 50 0 50 45 0 45 0 0 -50z" /><path d="M877 1723 c-15 -4 -17 -13 -15 -51 3 -43 5 -47 31 -50 27 -3 27 -2 27 52 0 57 -2 60 -43 49z m23 -53 c0 -33 -15 -41 -22 -12 -6 21 1 42 13 42 5 0 9 -13 9 -30z" /><path d="M1340 1101 c-89 -29 -120 -68 -120 -152 0 -44 4 -55 33 -83 25 -25 47 -35 97 -45 116 -23 140 -39 140 -94 0 -52 -82 -79 -160 -54 -19 6 -21 6 -10 -2 23 -16 3 -13 -30 4 -35 18 -41 31 -7 15 21 -11 21 -10 3 4 -27 22 -39 20 -64 -7 -23 -24 -21 -40 3 -31 16 7 55 -13 55 -27 0 -6 -7 -6 -20 1 -11 6 -20 8 -20 6 0 -8 77 -46 92 -46 7 1 0 7 -17 15 -29 13 -28 13 21 8 61 -6 93 8 146 65 25 27 35 46 31 60 -2 11 0 23 6 26 14 9 15 -53 0 -91 -6 -15 -20 -38 -31 -50 -17 -18 -18 -23 -6 -23 18 0 50 35 73 79 20 39 16 98 -8 135 -18 27 -80 58 -152 75 -74 18 -95 35 -95 76 0 26 6 39 25 51 33 22 103 14 145 -16 31 -22 41 -22 88 6 2 1 -4 14 -14 29 -33 50 -143 86 -204 66z m-23 -62 c-33 -25 -57 -68 -57 -104 0 -32 49 -85 79 -85 11 0 23 -5 27 -11 5 -9 -4 -10 -32 -5 -73 14 -104 49 -104 119 0 41 24 75 64 93 45 19 55 16 23 -7z" /><path d="M1590 1101 c0 -3 9 -23 19 -45 54 -114 201 -447 201 -456 0 -9 5 -12 31 -14 6 -1 17 15 24 34 13 37 123 286 180 408 l35 73 -51 -3 -51 -3 -64 -165 c-35 -91 -69 -174 -75 -185 -10 -18 -10 -18 4 -5 8 8 27 47 43 85 47 122 92 215 103 215 6 0 11 -4 11 -10 0 -19 -131 -335 -146 -351 -8 -8 -14 -24 -14 -35 -1 -46 -16 -40 -37 13 l-22 55 24 -6 c22 -6 25 -3 24 21 -1 16 -33 105 -72 200 l-70 171 -48 4 c-27 1 -49 1 -49 -1z" /><path d="M1207 873 c17 -42 30 -52 86 -70 47 -14 43 -9 -14 20 -26 14 -49 34 -58 54 -22 45 -33 41 -14 -4z" /><path d="M1190 642 c1 -27 86 -82 127 -82 13 0 23 -4 23 -8 0 -4 17 -6 38 -3 41 5 40 5 -41 21 -38 8 -73 23 -102 46 -25 18 -45 31 -45 26z" /><path d="M645 885 c9 -17 37 -53 62 -80 l45 -50 -44 55 c-24 31 -51 67 -61 80 -18 25 -18 25 -2 -5z" /><path d="M787 715 c12 -16 36 -39 55 -49 18 -11 31 -17 28 -14 -3 2 -27 24 -54 49 -41 36 -46 39 -29 14z" /><path d="M965 584 c26 -20 145 -78 150 -72 2 2 -35 23 -83 46 -48 23 -78 35 -67 26z" /><path d="M936 2595 c-114 -57 -206 -125 -306 -225 -140 -140 -200 -236 -315 -505 l-44 -102 -7 -214 c-5 -180 -4 -228 11 -304 9 -49 22 -96 27 -102 6 -7 8 -13 4 -13 -7 0 41 -111 54 -124 5 -5 -2 26 -16 70 -14 43 -32 102 -39 129 -18 64 -38 240 -30 265 3 11 8 57 10 102 8 162 14 204 35 253 29 68 49 106 71 130 10 11 18 29 18 40 -1 34 53 150 80 175 4 3 13 17 21 32 36 64 174 212 258 276 56 43 157 104 200 121 18 8 35 18 38 22 8 13 5 12 -70 -26z" /><path d="M2659 1452 c-2 -30 -1 -56 2 -58 10 -6 16 72 8 93 -4 11 -8 -4 -10 -35z" /><path d="M345 980 c-18 -7 -18 -9 -3 -15 9 -4 14 -13 11 -21 -3 -8 1 -14 10 -14 8 0 20 -15 28 -32 7 -18 19 -37 26 -41 7 -5 11 -13 7 -18 -3 -5 6 -25 20 -44 14 -18 26 -41 26 -50 0 -9 4 -14 9 -10 10 6 51 -46 51 -65 0 -6 4 -9 8 -6 4 2 13 -4 20 -15 7 -11 8 -19 2 -19 -5 0 -10 -4 -10 -10 0 -5 6 -10 14 -10 8 0 17 -7 20 -16 3 -8 11 -12 17 -8 8 4 7 9 -2 15 -10 6 -10 9 -2 9 6 0 20 -13 29 -29 10 -17 22 -28 28 -25 6 3 2 -2 -8 -10 -20 -16 -20 -16 0 -18 47 -3 72 -15 79 -38 3 -11 17 -20 32 -22 29 -3 45 -28 18 -28 -9 0 -13 -4 -10 -10 3 -6 15 -10 26 -10 10 0 19 -5 19 -11 0 -7 11 -9 30 -5 17 3 30 1 30 -4 0 -5 11 -12 25 -16 14 -3 25 -10 25 -16 0 -5 5 -6 12 -2 7 5 8 3 3 -5 -5 -9 -10 -10 -18 -2 -18 18 -28 12 -15 -9 10 -16 19 -19 47 -14 19 4 31 3 28 -2 -3 -5 11 -10 31 -11 19 -1 38 -6 41 -11 13 -21 151 -78 166 -69 10 5 27 3 46 -7 16 -8 37 -12 46 -9 11 4 14 2 9 -5 -4 -7 -1 -12 8 -12 9 0 16 5 16 11 0 8 5 7 15 -1 9 -7 18 -10 22 -7 3 4 12 2 20 -4 7 -7 13 -7 13 -2 0 11 62 10 99 -2 17 -5 21 -4 16 5 -10 17 27 8 43 -10 10 -13 11 -13 6 3 -4 12 -2 17 7 15 20 -4 29 -20 23 -40 -4 -13 -1 -16 10 -12 9 3 13 10 10 15 -2 5 2 21 11 36 l16 28 -6 -31 c-6 -33 30 -134 48 -134 5 0 3 8 -4 17 -12 15 -10 15 8 -1 20 -16 24 -17 38 -3 17 18 20 37 5 37 -5 0 -10 9 -10 19 0 11 -5 23 -11 27 -10 6 -8 -10 9 -54 2 -7 -2 -12 -9 -10 -17 4 -43 37 -35 45 3 3 1 12 -5 20 -9 10 -8 13 1 13 9 0 7 7 -6 22 -19 21 -19 21 3 16 12 -3 24 -1 26 6 3 7 11 3 21 -9 15 -20 15 -20 16 4 0 19 3 21 14 12 11 -9 16 -9 21 -1 4 7 18 10 31 7 17 -3 24 0 24 11 0 11 9 7 32 -14 18 -16 26 -21 19 -12 -11 15 -11 22 3 43 17 26 45 32 75 15 16 -8 17 -6 13 17 -4 19 -1 24 9 21 8 -3 29 4 48 15 l34 20 16 -20 c11 -15 22 -19 35 -14 15 6 16 10 7 16 -8 4 -16 2 -21 -5 -5 -8 -9 -7 -14 5 -6 17 10 38 34 43 8 2 17 7 20 10 10 14 50 32 50 23 0 -12 39 -21 46 -10 3 5 2 9 -3 8 -19 -3 -34 2 -29 10 4 5 1 11 -5 13 -7 2 7 10 30 16 23 7 39 17 36 21 -5 9 11 26 30 33 6 1 9 6 8 10 -1 3 4 9 13 12 8 3 13 2 10 -2 -3 -5 1 -9 9 -9 10 0 11 5 4 18 -8 15 -3 22 30 38 21 11 42 17 46 13 5 -4 5 -1 1 5 -13 24 -41 13 -106 -43 -131 -112 -283 -200 -430 -249 -30 -11 -59 -20 -65 -21 -202 -40 -366 -45 -526 -18 -364 63 -719 321 -879 642 -23 45 -42 82 -43 81 -1 0 -11 -4 -22 -9z" /><path d="M138 973 c34 -2 90 -2 125 0 34 2 6 3 -63 3 -69 0 -97 -1 -62 -3z" /><path d="M2658 959 c-6 -4 -7 -12 -4 -18 4 -6 11 -9 15 -6 5 2 22 0 40 -5 17 -5 29 -5 26 -1 -2 5 20 7 51 5 33 -2 52 0 49 6 -3 6 3 10 14 10 10 0 22 -6 25 -12 5 -10 7 -10 12 0 7 15 40 16 50 0 4 -6 3 -8 -4 -4 -6 3 -13 3 -16 -2 -2 -4 6 -8 19 -8 13 0 22 3 19 7 -2 4 3 9 11 13 8 3 15 1 15 -4 0 -6 5 -10 10 -10 18 0 11 28 -8 34 -24 8 -311 3 -324 -5z" /><path d="M2843 736 c2 -6 12 -10 22 -8 9 2 26 -4 36 -14 25 -23 34 -13 12 12 -19 21 -77 29 -70 10z" /><path d="M2412 640 c-14 -23 -13 -24 25 -9 22 8 24 12 13 19 -21 13 -24 13 -38 -10z" /><path d="M2724 643 c1 -10 6 -27 13 -38 9 -16 13 -17 27 -6 12 10 16 10 16 1 0 -6 7 -10 16 -8 34 7 4 30 -39 29 -9 0 -15 4 -12 8 2 5 -1 14 -9 20 -10 9 -13 7 -12 -6z" /><path d="M2961 641 c-10 -7 -8 -12 9 -24 12 -8 19 -20 16 -26 -4 -5 -2 -12 4 -16 16 -10 12 31 -5 45 -8 7 -12 16 -9 21 7 11 3 11 -15 0z" /><path d="M2463 575 c0 -10 5 -12 16 -6 9 6 24 3 40 -8 24 -15 25 -15 18 2 -4 10 -7 21 -7 23 0 2 -15 4 -33 4 -23 0 -34 -5 -34 -15z" /><path d="M2931 573 c-11 -12 -11 -14 0 -12 8 1 21 1 29 0 13 -1 13 -3 1 -10 -12 -8 -12 -12 -2 -24 10 -13 9 -15 -8 -10 -12 3 -21 9 -21 14 0 5 -9 4 -20 -3 -11 -7 -20 -17 -20 -22 0 -4 6 -3 14 3 12 10 20 9 40 -4 17 -11 26 -13 26 -6 0 7 4 10 9 7 5 -4 7 4 3 16 -4 15 -2 19 7 13 8 -4 6 3 -4 18 -21 32 -37 38 -54 20z" /><path d="M2430 560 c0 -15 38 -45 58 -46 9 -1 25 -5 35 -9 10 -4 17 -3 17 3 0 10 -25 22 -57 26 -7 1 -23 10 -33 19 -11 9 -20 12 -20 7z" /><path d="M2790 562 c0 -8 9 -16 20 -19 11 -3 20 -10 20 -15 0 -5 5 -6 11 -3 6 5 4 12 -8 21 -22 17 -3 18 32 2 20 -9 28 -9 38 2 10 10 8 12 -10 7 -13 -3 -23 -1 -23 4 0 13 -47 11 -56 -2 -4 -8 -9 -7 -15 2 -7 12 -9 12 -9 1z" /><path d="M310 551 c0 -18 23 -38 38 -33 6 2 12 10 12 18 0 9 -5 12 -10 9 -6 -4 -17 -1 -25 5 -12 10 -15 10 -15 1z" /><path d="M2556 538 c5 -9 26 -30 46 -46 21 -16 35 -32 31 -36 -6 -5 20 -10 40 -7 4 0 7 -4 7 -10 0 -5 4 -8 9 -4 5 3 12 1 16 -5 3 -6 21 -17 38 -26 25 -13 19 -4 -31 45 -34 33 -68 62 -75 62 -7 1 -16 2 -22 4 -5 1 -17 3 -25 4 -12 1 -11 5 4 16 11 8 15 15 9 15 -7 0 -15 -5 -18 -10 -5 -8 -12 -7 -23 2 -13 11 -14 11 -6 -4z" /><path d="M2380 510 c0 -4 -10 -6 -22 -2 -15 4 -19 2 -13 -7 4 -8 17 -10 33 -6 16 4 28 1 33 -7 7 -10 9 -9 9 3 0 9 -9 19 -20 22 -11 3 -20 1 -20 -3z" /><path d="M2557 490 c3 -12 12 -24 20 -27 11 -4 11 -8 3 -13 -8 -5 -5 -9 7 -12 29 -8 24 17 -8 48 -26 25 -28 26 -22 4z" /><path d="M2790 486 c0 -15 16 -29 38 -32 20 -3 14 13 -13 30 -21 14 -25 14 -25 2z" /><path d="M2736 481 c-6 -8 53 -56 60 -49 2 3 -9 17 -26 31 -16 15 -31 23 -34 18z" /><path d="M2340 476 c0 -11 71 -47 88 -44 11 2 26 -3 35 -11 11 -8 17 -9 17 -3 0 14 -35 34 -44 25 -3 -3 -6 -2 -6 3 0 5 -11 11 -26 12 -14 1 -34 7 -45 12 -10 6 -19 9 -19 6z" /><path d="M2956 454 c-8 -20 -8 -19 24 -29 l25 -8 -20 24 c-11 13 -20 25 -21 27 -1 2 -4 -5 -8 -14z" /><path d="M57 445 c3 -11 11 -23 17 -27 8 -5 7 -11 -1 -19 -6 -6 -9 -18 -6 -26 5 -12 7 -12 14 -1 14 21 10 41 -11 68 -16 20 -19 21 -13 5z" /><path d="M2850 449 c0 -7 10 -20 23 -31 19 -17 22 -18 25 -4 2 9 10 16 18 16 8 0 14 7 14 16 0 14 -1 14 -16 0 -19 -20 -30 -20 -38 -1 -6 18 -26 20 -26 4z" /><path d="M2714 389 c15 -9 16 -13 5 -21 -10 -7 -9 -8 5 -4 11 4 23 1 27 -6 4 -7 10 -10 13 -8 9 9 -19 37 -44 44 -22 6 -23 6 -6 -5z" /><path d="M2405 381 c15 -13 112 -24 99 -11 -6 6 -32 12 -59 15 -29 3 -45 1 -40 -4z" /><path d="M2859 358 c13 -21 20 -38 16 -38 -3 0 -1 -9 5 -21 11 -20 12 -20 25 -2 13 17 14 17 15 1 0 -12 8 -18 21 -18 19 0 20 2 8 18 -30 37 -44 42 -51 19 -6 -22 -6 -22 -7 1 -1 13 -13 35 -27 50 l-27 27 22 -37z" /><path d="M2895 380 c-3 -5 0 -8 7 -5 14 5 62 -33 71 -56 3 -8 6 -2 6 14 1 15 -4 27 -10 27 -6 0 -17 7 -25 15 -18 17 -40 20 -49 5z" /><path d="M244 354 c-4 -14 -2 -30 5 -37 8 -8 11 -7 11 4 0 12 2 12 11 -1 8 -12 9 -10 5 10 -3 14 -6 31 -6 38 0 22 -20 12 -26 -14z" /><path d="M2261 363 c-33 -4 -33 -4 -11 -20 17 -12 24 -13 30 -3 6 10 13 9 31 -4 35 -24 46 -19 19 9 -13 14 -26 24 -29 23 -3 0 -21 -3 -40 -5z" /><path d="M564 339 c-3 -6 -3 -13 0 -16 3 -4 6 0 6 8 0 12 2 12 9 0 7 -10 4 -19 -7 -28 -15 -11 -14 -12 9 -13 22 0 26 4 22 24 -5 27 -28 41 -39 25z" /><path d="M304 329 c-3 -6 -2 -15 2 -19 12 -12 38 5 30 19 -9 14 -23 14 -32 0z" /><path d="M2430 317 c0 -9 19 -21 49 -31 63 -20 71 -20 42 0 -18 13 -20 18 -10 25 9 6 1 7 -18 3 -20 -4 -39 -2 -48 6 -12 10 -15 10 -15 -3z" /><path d="M2606 322 c-4 -7 -11 -10 -16 -7 -5 3 -11 1 -15 -5 -3 -6 4 -9 17 -9 13 1 36 -4 52 -10 26 -10 28 -10 16 4 -7 8 -18 15 -25 15 -8 0 -15 5 -17 12 -3 9 -6 9 -12 0z" /><path d="M778 308 c-8 -20 2 -38 20 -38 13 0 14 -2 4 -9 -11 -7 -11 -9 2 -14 11 -5 16 -1 16 14 0 11 -7 22 -16 26 -8 3 -13 12 -10 19 3 8 1 14 -3 14 -5 0 -11 -6 -13 -12z" /><path d="M2289 297 c-1 -6 -1 -16 0 -20 1 -5 -14 -6 -33 -3 -19 3 -38 1 -41 -4 -3 -6 -3 -10 2 -10 4 -1 25 -3 46 -6 26 -4 37 -2 35 6 -5 21 17 21 42 0 27 -24 36 -25 43 -6 4 10 -1 12 -16 9 -18 -4 -19 -3 -7 6 19 13 5 26 -37 34 -23 5 -33 3 -34 -6z" /><path d="M30 280 c-37 -8 -32 -13 10 -11 20 2 22 0 10 -8 -13 -9 -13 -11 2 -11 10 0 22 9 28 20 12 22 10 23 -50 10z" /><path d="M435 280 c-3 -5 1 -10 9 -10 9 0 16 -4 16 -9 0 -4 -12 -6 -26 -3 -19 3 -25 1 -20 -7 4 -6 20 -10 36 -9 24 2 27 5 19 20 -12 23 -26 31 -34 18z" /><path d="M1900 282 c0 -10 38 -42 50 -42 5 0 0 11 -12 25 -21 25 -38 32 -38 17z" /><path d="M535 261 c-4 -13 -11 -18 -22 -14 -10 4 -14 2 -9 -5 8 -13 46 -12 46 3 0 5 4 3 10 -5 5 -8 11 -12 15 -9 3 3 -4 16 -14 28 -19 22 -19 22 -26 2z" /><path d="M2557 273 c-4 -6 0 -16 8 -23 8 -7 15 -9 15 -4 0 5 5 2 10 -6 5 -8 18 -16 30 -16 11 -1 21 -2 23 -3 1 -1 17 -4 35 -6 18 -1 45 -13 60 -26 15 -13 7 -3 -17 23 -24 25 -52 49 -63 51 -19 5 -19 5 -2 -14 22 -24 4 -25 -22 -1 -22 20 -54 25 -55 8 0 -6 -4 -2 -8 8 -5 12 -10 15 -14 9z" /><path d="M2701 263 c18 -24 31 -33 47 -33 10 0 10 4 0 19 -7 11 -15 18 -19 15 -4 -2 -10 0 -14 6 -3 5 -11 10 -17 10 -6 0 -5 -7 3 -17z" /><path d="M180 262 c0 -5 9 -17 20 -27 17 -16 20 -16 26 -2 3 9 3 21 -1 27 -7 12 -45 14 -45 2z" /><path d="M616 262 c6 -4 13 -15 17 -24 9 -24 27 -23 27 1 0 18 -18 31 -43 31 -8 0 -9 -3 -1 -8z" /><path d="M1976 262 c-7 -12 3 -42 14 -42 18 0 22 22 7 37 -9 9 -17 11 -21 5z" /><path d="M2049 259 c6 -9 8 -19 4 -22 -3 -4 -1 -7 5 -7 7 0 11 -6 10 -12 -2 -7 3 -12 11 -10 7 1 19 -2 26 -8 13 -11 45 -4 45 11 0 9 -19 13 -49 11 -7 0 -25 12 -39 26 -13 15 -19 20 -13 11z" /><path d="M2807 251 c12 -10 20 -21 17 -24 -3 -3 10 -15 28 -27 l33 -22 -28 26 c-15 14 -25 26 -21 26 4 0 -1 9 -11 20 -10 11 -23 20 -29 20 -6 -1 -1 -9 11 -19z" /><path d="M244 235 c8 -31 28 -52 34 -35 2 5 -6 22 -19 37 l-22 28 7 -30z" /><path d="M2120 251 c0 -13 33 -31 57 -31 15 0 16 2 3 11 -12 9 -10 10 9 5 17 -3 21 -2 13 6 -15 15 -82 22 -82 9z" /><path d="M1913 213 c0 -27 5 -34 31 -44 17 -7 35 -15 39 -17 5 -2 1 5 -9 17 -10 11 -23 21 -29 21 -6 0 -16 12 -22 28 l-10 27 0 -32z" /><path d="M0 218 c0 -6 9 -8 21 -5 16 4 18 3 9 -8 -8 -10 -7 -14 7 -17 15 -3 15 -6 -7 -26 -23 -21 -23 -23 -7 -39 11 -11 17 -13 18 -5 2 16 4 23 14 45 4 10 5 21 1 24 -3 4 1 14 9 23 13 14 11 16 -25 17 -23 1 -40 -3 -40 -9z" /><path d="M102 218 c-14 -14 -16 -38 -3 -38 15 0 30 25 22 38 -5 9 -10 9 -19 0z" /><path d="M2280 216 c-10 -13 -10 -16 4 -16 10 0 14 5 11 10 -14 23 14 8 48 -25 21 -20 37 -32 37 -28 0 4 4 2 9 -6 5 -8 17 -16 26 -17 14 -2 13 3 -6 24 -62 71 -102 89 -129 58z" /><path d="M2457 211 c-3 -11 -2 -19 2 -18 3 1 7 -2 8 -8 2 -12 42 -27 54 -19 12 7 11 34 -1 34 -5 0 -10 -6 -10 -12 0 -9 -3 -8 -10 2 -6 9 -5 17 3 23 8 6 7 7 -4 4 -9 -3 -21 -1 -26 4 -7 7 -12 3 -16 -10z" /><path d="M1840 212 c0 -4 6 -17 14 -28 13 -18 12 -21 -5 -32 -14 -9 -19 -9 -19 0 0 6 -3 8 -6 5 -9 -9 15 -37 32 -37 7 0 18 17 23 38 13 46 14 62 1 42 -8 -13 -10 -12 -10 3 0 9 -7 17 -15 17 -8 0 -15 -3 -15 -8z" /><path d="M2418 213 c-19 -5 -25 -23 -9 -23 5 0 12 -8 15 -18 7 -21 36 -25 36 -5 0 7 -7 13 -15 13 -18 0 -20 26 -2 33 15 7 -2 6 -25 0z" /><path d="M2759 196 c14 -14 41 -31 62 -36 20 -6 42 -17 49 -25 16 -19 0 -19 -26 0 -33 25 -50 18 -24 -10 24 -25 72 -35 68 -14 -2 6 3 14 11 17 9 3 11 0 6 -8 -5 -8 -4 -11 2 -7 5 3 17 -3 27 -14 10 -12 20 -19 22 -16 7 7 -18 57 -26 52 -12 -8 -80 24 -86 40 -3 8 -20 19 -37 24 -18 5 -41 12 -52 17 -18 6 -17 4 4 -20z" /><path d="M467 197 c-3 -9 -2 -17 3 -17 5 0 7 -7 4 -15 -4 -10 0 -15 15 -15 24 0 28 15 7 27 -7 4 -15 15 -18 22 -3 12 -6 12 -11 -2z" /><path d="M934 175 c15 -20 22 -35 15 -35 -16 0 -3 -13 16 -16 11 -2 12 3 2 24 -14 33 -37 62 -50 62 -5 0 3 -16 17 -35z" /><path d="M1770 195 c0 -8 4 -15 8 -15 14 0 10 -29 -5 -34 -7 -3 -13 -10 -13 -16 0 -5 9 -2 19 7 11 9 18 20 15 25 -3 4 1 8 8 8 8 0 6 5 -5 11 -9 6 -15 14 -12 20 4 5 1 9 -4 9 -6 0 -11 -7 -11 -15z" /><path d="M305 183 c2 -10 4 -23 4 -30 1 -6 12 -10 26 -8 39 4 40 12 3 20 -18 4 -27 9 -20 12 6 2 10 9 6 14 -9 16 -22 10 -19 -8z" /><path d="M970 193 c0 -27 27 -73 42 -73 23 0 23 9 -3 31 -11 9 -20 20 -20 23 2 19 0 26 -9 26 -5 0 -10 -3 -10 -7z" /><path d="M2020 185 c0 -39 13 -47 59 -36 47 10 58 17 46 29 -4 4 -10 1 -12 -6 -4 -10 -10 -9 -24 4 -19 17 -20 17 -13 -2 7 -17 6 -17 -9 -5 -15 12 -17 12 -11 -3 5 -12 2 -15 -10 -10 -9 3 -14 9 -12 13 3 4 1 13 -5 21 -7 12 -9 11 -9 -5z" /><path d="M2172 182 c-29 -26 -28 -32 8 -32 17 0 30 2 30 4 0 2 3 12 7 22 4 11 3 15 -4 11 -6 -4 -13 -2 -15 4 -2 6 -13 2 -26 -9z" /><path d="M2630 192 c0 -5 3 -12 8 -16 4 -4 7 -11 7 -14 3 -34 87 -128 137 -152 20 -10 20 -8 -4 13 -20 19 -25 31 -21 48 6 21 5 23 -10 10 -13 -11 -17 -11 -17 -1 0 8 -3 10 -7 7 -3 -4 -11 3 -18 16 -6 12 -17 21 -23 20 -17 -4 -15 8 4 22 24 17 2 55 -31 55 -14 0 -25 -4 -25 -8z" /><path d="M2899 188 c7 -10 10 -18 6 -18 -4 0 -2 -7 5 -15 7 -8 16 -13 20 -10 9 6 33 -22 36 -42 7 -43 34 -62 34 -23 0 11 -5 20 -11 20 -5 0 -8 4 -5 9 3 5 -2 12 -11 15 -15 6 -15 9 -3 17 13 9 12 10 -2 6 -9 -3 -24 3 -34 14 -9 10 -12 19 -6 19 6 0 14 -4 17 -10 3 -5 14 -10 23 -10 13 1 12 4 -6 13 -12 7 -19 17 -15 21 4 5 -1 4 -13 -2 -15 -8 -24 -8 -34 1 -12 10 -12 9 -1 -5z" /><path d="M250 188 c0 -17 20 -58 30 -58 5 0 10 4 10 9 0 10 -39 59 -40 49z" /><path d="M2560 164 c0 -22 3 -26 10 -14 8 12 10 10 10 -8 0 -13 4 -20 10 -17 6 3 10 2 10 -4 0 -17 -25 -18 -37 -2 -7 9 -13 11 -13 5 0 -6 7 -18 16 -25 14 -11 19 -10 35 10 17 20 23 20 21 0 -1 -3 6 -6 14 -6 12 0 12 3 0 21 -7 12 -15 19 -18 16 -2 -3 -16 8 -31 24 l-27 29 0 -29z" /><path d="M1360 173 c0 -2 5 -12 12 -22 10 -16 16 -18 32 -9 19 10 20 10 7 -6 -13 -16 -11 -20 15 -41 43 -35 48 -30 20 18 -19 30 -31 41 -46 39 -22 -4 -28 13 -7 21 6 3 2 4 -10 4 -13 -1 -23 -3 -23 -4z" /><path d="M2226 164 c-8 -21 -8 -24 5 -24 5 0 7 5 4 10 -3 6 1 10 10 10 12 0 14 -4 5 -19 -7 -14 -7 -22 2 -27 6 -4 8 -3 5 3 -10 16 22 24 45 12 15 -8 19 -8 14 0 -4 6 -25 20 -46 31 -34 17 -39 18 -44 4z" /><path d="M87 163 c-4 -3 -7 -19 -7 -34 0 -21 4 -27 15 -22 9 3 14 11 12 17 -2 6 0 19 5 29 6 12 5 17 -5 17 -8 0 -17 -3 -20 -7z" /><path d="M1103 163 c4 -3 2 -12 -3 -19 -16 -18 16 -91 38 -89 23 3 52 16 52 24 0 3 -9 12 -20 19 -16 10 -25 10 -43 1 -22 -12 -22 -12 -3 10 17 19 17 21 3 21 -22 0 -21 9 1 26 16 12 15 13 -7 14 -13 0 -21 -3 -18 -7z" /><path d="M1900 145 c-11 -21 -11 -28 0 -38 10 -10 12 -8 7 10 -3 13 -1 26 4 29 5 3 9 -7 9 -22 0 -15 8 -33 18 -41 9 -8 11 -11 3 -7 -7 3 -17 0 -22 -7 -6 -10 -9 -11 -9 -1 0 6 -7 12 -16 12 -9 0 -14 -6 -11 -12 2 -7 15 -12 28 -11 13 2 34 3 47 4 12 1 22 6 22 11 0 5 -4 6 -10 3 -22 -13 -8 11 18 32 22 18 24 22 9 23 -12 0 -16 -4 -11 -12 8 -14 -13 1 -52 34 -20 18 -21 18 -34 -7z" /><path d="M1145 150 c-3 -5 1 -10 9 -10 9 0 16 -6 16 -14 0 -13 27 -31 43 -28 4 1 7 -3 7 -10 0 -6 3 -8 6 -5 4 3 15 2 25 -4 31 -16 22 7 -11 31 -16 12 -35 18 -40 15 -6 -4 -9 -1 -8 6 2 7 -1 13 -7 14 -5 0 -15 4 -22 8 -6 4 -14 3 -18 -3z" /><path d="M1340 146 c0 -12 -5 -14 -25 -6 -17 6 -25 6 -25 -1 0 -6 -5 -7 -11 -3 -8 4 -8 1 -1 -12 5 -11 7 -25 4 -33 -3 -8 0 -11 7 -7 7 5 11 -1 11 -16 0 -24 16 -56 23 -48 2 3 11 27 19 53 15 45 15 47 -2 32 -21 -19 -40 -19 -40 0 0 8 8 15 19 15 23 0 47 25 31 35 -5 3 -10 -1 -10 -9z" /><path d="M1602 138 c-6 -6 -12 -18 -12 -26 0 -10 -8 -12 -31 -7 -22 5 -29 4 -25 -4 8 -13 45 -14 65 -2 7 5 11 14 7 20 -4 7 -1 9 8 5 9 -3 14 -11 13 -16 -1 -6 4 -13 11 -15 17 -6 15 8 -6 35 -14 18 -20 20 -30 10z" /><path d="M2715 140 c-12 -20 17 -40 58 -40 l40 0 -23 25 c-24 26 -64 33 -75 15z" /><path d="M1040 132 c0 -22 13 -42 26 -42 20 0 17 14 -6 35 -11 10 -20 13 -20 7z" /><path d="M2130 132 c0 -6 -12 -15 -27 -21 -24 -9 -20 -10 32 -9 33 0 73 -5 89 -11 47 -19 42 -4 -6 17 -61 28 -88 35 -88 24z" /><path d="M369 123 c0 -4 -2 -15 -4 -24 -2 -12 4 -16 25 -15 30 1 55 16 27 16 -8 0 -23 7 -31 16 -9 8 -16 12 -17 7z" /><path d="M2370 109 c13 -12 26 -16 28 -11 5 15 42 -24 42 -43 0 -13 75 -55 96 -55 3 0 -22 27 -55 61 -47 47 -65 59 -81 54 -11 -4 -20 -2 -20 4 0 6 -8 11 -17 11 -15 -1 -14 -4 7 -21z" /><path d="M2480 120 c8 -5 11 -10 6 -10 -4 0 5 -15 20 -33 16 -18 37 -44 47 -57 15 -21 16 -21 7 -3 -6 12 -10 26 -9 30 1 4 1 15 0 23 -1 13 -2 13 -11 0 -9 -13 -10 -13 -11 0 -1 8 -1 22 0 30 0 10 -1 11 -5 3 -3 -7 -10 -13 -15 -13 -6 0 -7 5 -3 11 7 11 -12 29 -31 29 -5 0 -3 -5 5 -10z" /><path d="M452 89 c-8 -12 -10 -24 -5 -28 4 -3 8 -13 8 -21 0 -23 30 -24 32 0 1 11 -2 20 -7 20 -5 0 -10 11 -12 25 l-3 26 -13 -22z" /><path d="M1472 90 c8 -12 24 -20 40 -20 37 0 35 7 -8 25 -46 19 -47 19 -32 -5z" /><path d="M2000 90 c0 -5 16 -10 36 -10 21 0 33 4 29 10 -3 6 -19 10 -36 10 -16 0 -29 -4 -29 -10z" /><path d="M2119 76 c16 -19 44 -21 39 -3 -3 6 -15 14 -28 15 -21 3 -22 2 -11 -12z" /><path d="M2788 80 c-22 -14 -17 -35 15 -60 25 -20 54 -20 42 1 -4 5 -1 9 4 9 6 0 11 4 11 9 0 5 -12 8 -27 7 -16 0 -28 4 -29 9 0 6 7 9 18 7 22 -4 24 13 2 22 -19 7 -15 8 -36 -4z" /><path d="M850 65 c0 -8 5 -15 11 -15 8 0 8 -5 -1 -15 -15 -18 -31 -10 -23 11 5 13 2 13 -22 2 -23 -10 -28 -10 -36 5 -6 9 -17 17 -26 17 -13 0 -12 -5 7 -25 25 -26 50 -33 50 -13 0 6 10 2 23 -10 32 -30 62 -30 52 1 -4 12 -7 30 -6 40 0 9 -7 17 -15 17 -8 0 -14 -7 -14 -15z" /><path d="M906 68 c3 -4 16 -8 30 -8 17 0 24 -5 24 -20 0 -11 6 -19 13 -17 6 1 11 -4 9 -11 -1 -8 2 -11 8 -7 6 4 7 13 1 23 -9 17 -11 24 -11 40 0 5 -18 8 -39 8 -22 0 -37 -4 -35 -8z" /><path d="M2188 69 c-9 -6 -6 -9 10 -9 21 0 22 -1 8 -16 -9 -8 -16 -21 -15 -27 0 -8 2 -7 6 1 4 10 10 9 25 -4 15 -15 23 -16 38 -6 12 7 21 8 25 2 3 -6 14 -10 23 -10 13 0 13 2 -4 15 -17 14 -15 14 20 0 44 -17 56 -19 56 -6 0 5 -20 14 -45 20 -25 6 -45 15 -45 20 0 18 -81 33 -102 20z m67 -19 c13 -14 15 -24 8 -31 -11 -11 -36 12 -39 37 -3 20 10 17 31 -6z" /><path d="M240 62 c0 -5 7 -15 15 -22 8 -6 13 -17 12 -22 -1 -6 4 -13 10 -15 10 -3 9 4 -1 28 -13 32 -36 51 -36 31z" /><path d="M315 60 c-8 -12 3 -50 15 -50 4 0 10 9 13 20 3 11 13 20 22 20 10 0 15 -5 12 -14 -6 -14 31 -36 61 -36 13 0 12 5 -8 23 -44 39 -102 58 -115 37z" /><path d="M2320 64 c0 -7 131 -67 136 -62 4 5 -18 17 -88 47 -27 11 -48 18 -48 15z" /><path d="M2002 52 c-19 -3 -21 -6 -11 -18 10 -13 15 -12 33 3 18 16 19 16 7 1 -20 -27 -2 -43 21 -19 14 16 26 20 46 15 36 -9 43 -14 37 -25 -4 -5 -2 -9 4 -9 19 0 20 17 3 33 -18 16 -94 26 -140 19z" /><path d="M2885 50 c3 -5 12 -10 19 -10 7 0 25 -9 39 -20 40 -32 46 -23 7 10 -33 28 -79 42 -65 20z" /><path d="M696 41 c-8 -12 21 -34 34 -26 5 3 10 1 10 -4 0 -6 7 -11 15 -11 8 0 15 5 15 10 0 6 -7 10 -15 10 -8 0 -15 5 -15 11 0 8 -5 7 -15 -1 -13 -11 -14 -10 -9 4 6 17 -11 23 -20 7z" /><path d="M1605 40 c10 -16 65 -42 78 -36 8 3 6 5 -3 5 -8 1 -26 10 -40 21 -27 21 -45 26 -35 10z" /><path d="M2662 25 c-1 -21 3 -25 23 -25 30 0 30 1 6 28 -23 28 -26 27 -29 -3z" /><path d="M1345 29 c-4 -6 -5 -12 -3 -14 7 -7 48 7 48 16 0 13 -37 11 -45 -2z" /><path d="M1505 25 c11 -9 26 -13 33 -10 8 3 23 5 34 5 38 0 12 10 -38 15 -45 4 -47 3 -29 -10z" /><path d="M2867 16 c-3 -7 9 -12 35 -13 45 -2 45 3 0 16 -21 7 -32 6 -35 -3z" /></g></svg>